<?xml version="1.0" encoding="UTF-8"?>
<svg id="Layer_2" data-name="Layer 2" xmlns="http://www.w3.org/2000/svg" viewBox="0 0 105.05 126.44">
  <defs>
    <style>
      .cls-1 {
        fill: #e86a0c;
      }

      .cls-2 {
        fill: #3a3a3a;
      }
    </style>
  </defs>
  <path class="cls-2" d="M2.78,106.83v18.23h20v-15.17l-20-3.06Z"/>
  <path class="cls-1" d="M100.53,15.41L37.22,1.5l-9.59,7.89,9.38,11.86,2.99-2.53,30.79,4.36,14.26-3.13-24.29,21.69c-2.46-1.3-5.26-2.03-8.23-2.03-.33,0-.65.01-.97.02-7.63.42-13.97,5.65-16.04,12.7-.47,1.59-.72,3.26-.72,5,0,2.27.42,4.44,1.2,6.42l-24,21.43,3.3-45.59,6.08-5.14-9.55-12.07L0,32.11l2.78,71.06,65.92,9.99,8.92-7.63-8.99-11.36-4.8,4.05-30.79-4.36-14.25,3.13,26.35-23.53c2.25,1.03,4.75,1.6,7.39,1.6.32,0,.64-.01.96-.02,7.62-.41,13.97-5.63,16.04-12.69.48-1.59.73-3.28.73-5.02,0-1.93-.31-3.78-.88-5.52l22.46-20.04-3.31,45.58-4.27,3.61,8.91,11.25,11.88-10.17-4.52-66.63Z"/>
  <path class="cls-2" d="M24.99,9.29l22.91,28.95c-5.64,1.36-10.33,5.15-12.89,10.21L4.09,9.38l20.9-.09Z"/>
  <path class="cls-2" d="M100.96,105.29l-20.9.09-22.88-28.91c5.64-1.36,10.33-5.15,12.91-10.19l30.87,39.01Z"/>
</svg>