<?xml version="1.0" encoding="UTF-8"?>
<svg id="Layer_1" data-name="Layer 1" xmlns="http://www.w3.org/2000/svg" viewBox="0 0 792.8 184.77">
  <defs>
    <style>
      .cls-1 {
        fill: #fff;
      }

      .cls-2 {
        fill: #e86a0c;
      }
    </style>
  </defs>
  <g>
    <path class="cls-1" d="M5.44,11.92h53.71c32.34,0,46.65,17.84,46.65,42.14s-14.31,42.34-46.65,42.34H25.44v43.71H5.44V11.92ZM59.55,77.98c19.21,0,26.07-10.19,26.07-23.92s-6.86-23.72-26.07-23.72H25.44v47.63h34.11Z"/>
    <path class="cls-1" d="M119.53,83.07c0-28.62,16.86-42.34,41.75-42.34s41.56,13.72,41.56,42.54v.98h-18.42v-1.18c0-17.84-9.41-25.09-23.13-25.09s-23.13,7.25-23.13,25.09v57.04h-18.62v-57.04Z"/>
    <path class="cls-1" d="M316.13,166.78h2.16c11.96,0,16.47-5.29,16.47-19.01V43.28h18.62v103.31c0,23.91-9.41,36.26-33.32,36.26h-3.92v-16.07ZM331.03,14.86c0-7.45,5.49-12.94,12.94-12.94s12.94,5.49,12.94,12.94-5.49,13.13-12.94,13.13-12.94-5.68-12.94-13.13Z"/>
    <path class="cls-1" d="M371.99,91.7c0-29.4,21.56-50.97,52.14-50.97s51.75,21.56,51.75,50.97v6.86h-84.29c2.74,17.25,15.68,26.85,32.54,26.85,12.55,0,21.37-3.92,27.05-12.35h20.58c-7.45,18.03-25.09,29.6-47.63,29.6-30.58,0-52.14-21.57-52.14-50.97ZM456.28,81.9c-3.72-15.49-16.47-23.92-32.15-23.92s-28.23,8.62-31.95,23.92h64.1Z"/>
    <path class="cls-1" d="M595.65,93.86v-50.57h18.62v50.57c0,20.97,11.57,31.56,29.21,31.56s29.21-10.58,29.21-31.56v-50.57h18.62v50.57c0,32.15-19.21,48.81-47.83,48.81s-47.83-16.47-47.83-48.81Z"/>
    <path class="cls-1" d="M706.99,112.09h18.82c.39,8.04,7.84,13.72,21.37,13.72s21.37-6.08,21.37-13.72c0-9.21-10.19-10.39-22.35-11.96-16.86-2.15-37.24-5.29-37.24-27.44,0-19.02,14.9-31.95,38.03-31.95s37.44,13.13,37.83,29.8h-18.42c-.59-7.45-7.45-12.94-19.21-12.94-12.35,0-19.4,5.88-19.4,13.53,0,9.21,10.19,10.19,22.15,11.76,16.86,2.16,37.44,5.29,37.44,27.44,0,19.6-15.88,32.34-40.19,32.34s-39.6-12.94-40.18-30.58Z"/>
  </g>
  <path class="cls-2" d="M314.99,48.6l-63.31-13.91-37.21,30.61,2.78,71.06,65.92,10,36.35-31.12-4.52-66.63ZM229.77,72.78l24.7-20.87,30.78,4.36,14.27-3.13-24.29,21.68c-2.46-1.29-5.26-2.02-8.23-2.02-9.79,0-17.73,7.93-17.73,17.72,0,2.26.43,4.44,1.2,6.42l-23.99,21.42,3.3-45.58ZM302.99,110.54l-24.7,20.87-30.78-4.36-14.25,3.13,26.35-23.53c2.25,1.03,4.75,1.61,7.39,1.61,9.79,0,17.73-7.93,17.73-17.73,0-1.93-.3-3.79-.88-5.52l22.46-20.05-3.31,45.58Z"/>
  <g>
    <polygon class="cls-2" points="502.03 139.3 481.13 139.21 557.1 43.21 578 43.3 502.03 139.3"/>
    <polygon class="cls-2" points="502.02 43.2 523.06 69.81 512.59 83.06 481.13 43.29 502.02 43.2"/>
    <polygon class="cls-2" points="577.98 139.22 557.1 139.32 536.05 112.7 546.53 99.45 577.98 139.22"/>
  </g>
</svg>